<?xml version="1.0" encoding="UTF-8" standalone="no"?>
<!-- Created with Inkscape (http://www.inkscape.org/) -->

<svg
   xmlns:dc="http://purl.org/dc/elements/1.1/"
   xmlns:cc="http://creativecommons.org/ns#"
   xmlns:rdf="http://www.w3.org/1999/02/22-rdf-syntax-ns#"
   xmlns:svg="http://www.w3.org/2000/svg"
   xmlns="http://www.w3.org/2000/svg"
   xmlns:sodipodi="http://sodipodi.sourceforge.net/DTD/sodipodi-0.dtd"
   xmlns:inkscape="http://www.inkscape.org/namespaces/inkscape"
   width="793.70081"
   height="1122.5197"
   viewBox="0 0 210 297"
   version="1.1"
   id="svg8"
   inkscape:version="0.92.3 (2405546, 2018-03-11)"
   sodipodi:docname="hellostocks.svg"
   inkscape:export-filename="C:\Users\nicho\OneDrive\Documents\GitHub\HelloWorld2018\public\assets\hellostock.png"
   inkscape:export-xdpi="94.5"
   inkscape:export-ydpi="94.5">
  <defs
     id="defs2" />
  <sodipodi:namedview
     id="base"
     pagecolor="#ffffff"
     bordercolor="#666666"
     borderopacity="1.0"
     inkscape:pageopacity="0.0"
     inkscape:pageshadow="2"
     inkscape:zoom="2.8284271"
     inkscape:cx="-49.780193"
     inkscape:cy="13.593358"
     inkscape:document-units="px"
     inkscape:current-layer="layer1"
     showgrid="false"
     units="px"
     inkscape:showpageshadow="true"
     showborder="false"
     inkscape:snap-nodes="false"
     inkscape:snap-bbox="false"
     inkscape:measure-start="0,0"
     inkscape:measure-end="0,0"
     showguides="true"
     inkscape:window-width="1536"
     inkscape:window-height="801"
     inkscape:window-x="-8"
     inkscape:window-y="-8"
     inkscape:window-maximized="1" />
  <metadata
     id="metadata5">
    <rdf:RDF>
      <cc:Work
         rdf:about="">
        <dc:format>image/svg+xml</dc:format>
        <dc:type
           rdf:resource="http://purl.org/dc/dcmitype/StillImage" />
        <dc:title />
      </cc:Work>
    </rdf:RDF>
  </metadata>
  <g
     inkscape:groupmode="layer"
     id="layer2"
     inkscape:label="Layer 2" />
  <g
     inkscape:groupmode="layer"
     id="layer3"
     inkscape:label="Layer 3" />
  <g
     inkscape:label="Layer 1"
     inkscape:groupmode="layer"
     id="layer1">
    <flowRoot
       xml:space="preserve"
       id="flowRoot4317"
       style="fill:black;fill-opacity:1;stroke:none;font-family:sans-serif;font-style:normal;font-weight:normal;font-size:40px;line-height:1.25;letter-spacing:0px;word-spacing:0px"><flowRegion
         id="flowRegion4319"><rect
           id="rect4321"
           width="147.85715"
           height="72.14286"
           x="-263.57144"
           y="1121.8054" /></flowRegion><flowPara
         id="flowPara4323" /></flowRoot>    <text
       xml:space="preserve"
       style="font-style:normal;font-weight:normal;font-size:10.58333302px;line-height:1.25;font-family:sans-serif;letter-spacing:0px;word-spacing:0px;fill:#000000;fill-opacity:1;stroke:none;stroke-width:0.26458332"
       x="-11.038231"
       y="302.42557"
       id="text4568"><tspan
         sodipodi:role="line"
         id="tspan4566"
         x="-11.038231"
         y="312.08105"
         style="stroke-width:0.26458332" /></text>
    <path
       style="fill:none;stroke:#ff5a00;stroke-width:0.89958334;stroke-linecap:butt;stroke-linejoin:miter;stroke-miterlimit:4;stroke-dasharray:none;stroke-opacity:1"
       d="m 15.481587,299.30434 -3.695001,-3.55467 -7.1795277,6.78196"
       id="path4572"
       inkscape:connector-curvature="0"
       inkscape:export-filename="C:\Users\nicho\OneDrive\Desktop\logo.png"
       inkscape:export-xdpi="150"
       inkscape:export-ydpi="150" />
    <g
       aria-label="HelloStocks"
       style="font-style:normal;font-weight:normal;font-size:10.58333302px;line-height:1.25;font-family:sans-serif;letter-spacing:0px;word-spacing:0px;fill:#000000;fill-opacity:1;stroke:none;stroke-width:0.26458332"
       id="text4327"
       transform="translate(0.33547846,-0.10598826)"
       inkscape:export-filename="C:\Users\nicho\OneDrive\Desktop\logo.png"
       inkscape:export-xdpi="150"
       inkscape:export-ydpi="150">
      <path
         d="m -34.242133,302.48062 h -1.023193 v -3.76721 h -3.839559 v 3.76721 h -1.023193 V 294.786 h 1.023193 v 3.0179 h 3.839559 v -3.0179 h 1.023193 z"
         style="stroke-width:0.26458332"
         id="path4329"
         inkscape:connector-curvature="0"
         sodipodi:nodetypes="ccccccccccccc" />
      <path
         d="m -27.415676,299.69526 h -4.25297 c 0,0.35485 0.0534,0.66491 0.160197,0.93018 0.106798,0.26183 0.253214,0.47714 0.439249,0.64595 0.179145,0.16537 0.391019,0.28939 0.635621,0.37207 0.248047,0.0827 0.520209,0.12403 0.816487,0.12403 0.392741,0 0.787204,-0.0775 1.18339,-0.23255 0.399631,-0.15847 0.683852,-0.3135 0.852661,-0.46509 h 0.05168 v 1.05937 c -0.327284,0.13781 -0.661458,0.25322 -1.002523,0.34623 -0.341065,0.093 -0.699355,0.13953 -1.07487,0.13953 -0.957736,0 -1.705322,-0.25838 -2.242757,-0.77515 -0.537435,-0.52021 -0.806152,-1.25746 -0.806152,-2.21175 0,-0.94395 0.25666,-1.69326 0.769979,-2.24792 0.516764,-0.55466 1.195448,-0.83199 2.036051,-0.83199 0.778592,0 1.378039,0.22738 1.79834,0.68213 0.423747,0.45475 0.63562,1.1007 0.63562,1.93786 z m -0.945679,-0.74414 c -0.0035,-0.50987 -0.132658,-0.90434 -0.387573,-1.18339 -0.251492,-0.27905 -0.63562,-0.41858 -1.152384,-0.41858 -0.520209,0 -0.935343,0.15331 -1.245402,0.45992 -0.306613,0.30661 -0.480591,0.6873 -0.521932,1.14205 z"
         style="stroke-width:0.26458332"
         id="path4331"
         inkscape:connector-curvature="0"
         sodipodi:nodetypes="cccccscccccscscscccccsccc" />
      <path
         d="m -24.961045,302.48062 h -0.971517 v -8.04085 h 0.971517 z"
         style="stroke-width:0.26458332"
         id="path4333"
         inkscape:connector-curvature="0" />
      <path
         d="m -22.046494,302.48062 h -0.971517 v -8.04085 h 0.971517 z"
         style="stroke-width:0.26458332"
         id="path4335"
         inkscape:connector-curvature="0" />
      <path
         d="m -15.1942,299.59708 q 0,1.41076 -0.72347,2.22725 -0.72347,0.81649 -1.937866,0.81649 -1.224731,0 -1.948201,-0.81649 -0.718303,-0.81649 -0.718303,-2.22725 0,-1.41077 0.718303,-2.22726 0.72347,-0.82165 1.948201,-0.82165 1.214396,0 1.937866,0.82165 0.72347,0.81649 0.72347,2.22726 z m -1.002522,0 q 0,-1.12138 -0.43925,-1.66398 -0.43925,-0.54777 -1.219564,-0.54777 -0.790649,0 -1.229899,0.54777 -0.434082,0.5426 -0.434082,1.66398 0,1.0852 0.43925,1.64847 0.43925,0.55811 1.224731,0.55811 0.775147,0 1.214396,-0.55294 0.444418,-0.5581 0.444418,-1.65364 z"
         style="stroke-width:0.26458332"
         id="path4337"
         inkscape:connector-curvature="0" />
      <path
         d="m -4.8413444,300.28437 q 0,0.44959 -0.2118734,0.88884 -0.2067057,0.43925 -0.5839436,0.74414 -0.4134115,0.33073 -0.9663493,0.51676 -0.5477702,0.18604 -1.3229166,0.18604 -0.8319905,0 -1.4986165,-0.15503 -0.6614582,-0.15503 -1.3487552,-0.45992 v -1.28158 h 0.07235 q 0.583944,0.48576 1.3487552,0.74931 0.7648112,0.26355 1.4366048,0.26355 0.9508463,0 1.4779459,-0.35657 0.5322672,-0.35656 0.5322672,-0.95084 0,-0.5116 -0.2532145,-0.75448 -0.2480468,-0.24288 -0.7596435,-0.37724 -0.3875732,-0.10335 -0.8423258,-0.17053 -0.449585,-0.0672 -0.956014,-0.17053 -1.0231933,-0.21704 -1.5192873,-0.73897 -0.490926,-0.5271 -0.490926,-1.36943 0,-0.96635 0.8164877,-1.5813 0.8164877,-0.62012 2.0722249,-0.62012 0.81132,0 1.4882812,0.15503 0.6769613,0.15503 1.1988932,0.38241 v 1.20923 h -0.07235 q -0.4392496,-0.37207 -1.157552,-0.61495 -0.7131348,-0.24805 -1.462443,-0.24805 -0.8216553,0 -1.3229166,0.34107 -0.4960938,0.34106 -0.4960938,0.8785 0,0.48059 0.2480469,0.75447 0.2480469,0.27389 0.8733317,0.41858 0.3307291,0.0724 0.940511,0.1757 0.6097819,0.10335 1.0335286,0.21187 0.8578288,0.22738 1.2919108,0.6873 0.434082,0.45992 0.434082,1.28674 z"
         style="stroke-width:0.26458332"
         id="path4339"
         inkscape:connector-curvature="0" />
      <path
         d="m -0.27831662,302.42894 q -0.27388508,0.0723 -0.59944659,0.11886 -0.32039389,0.0465 -0.57360839,0.0465 -0.883667,0 -1.3435872,-0.47542 -0.4599202,-0.47543 -0.4599202,-1.52446 v -3.06958 h -0.6562907 v -0.81649 h 0.6562907 v -1.65881 h 0.9715169 v 1.65881 h 2.00504548 v 0.81649 H -2.2833621 v 2.63033 q 0,0.45475 0.020671,0.71314 0.020671,0.25321 0.144694,0.47542 0.1136882,0.20671 0.3100586,0.30489 0.2015381,0.093 0.6097819,0.093 0.2377116,0 0.49609375,-0.0672 0.25838216,-0.0723 0.3720703,-0.11886 h 0.0516764 z"
         style="stroke-width:0.26458332"
         id="path4341"
         inkscape:connector-curvature="0" />
      <path
         d="m 5.8195036,299.59708 q 0,1.41076 -0.72347,2.22725 -0.7234701,0.81649 -1.9378662,0.81649 -1.2247314,0 -1.9482014,-0.81649 -0.7183024,-0.81649 -0.7183024,-2.22725 0,-1.41077 0.7183024,-2.22726 0.72347,-0.82165 1.9482014,-0.82165 1.2143961,0 1.9378662,0.82165 0.72347,0.81649 0.72347,2.22726 z m -1.0025227,0 q 0,-1.12138 -0.4392497,-1.66398 -0.4392497,-0.54777 -1.2195638,-0.54777 -0.7906494,0 -1.229899,0.54777 -0.434082,0.5426 -0.434082,1.66398 0,1.0852 0.4392496,1.64847 0.4392497,0.55811 1.2247314,0.55811 0.7751465,0 1.2143961,-0.55294 0.4444174,-0.5581 0.4444174,-1.65364 z"
         style="stroke-width:0.26458332"
         id="path4343"
         inkscape:connector-curvature="0" />
      <path
         d="m 11.596927,302.11889 q -0.485758,0.23254 -0.925008,0.36173 -0.434082,0.12919 -0.9250077,0.12919 -0.6252848,0 -1.1472168,-0.18087 -0.5219319,-0.18603 -0.8940022,-0.5581 -0.377238,-0.37207 -0.5839437,-0.94051 -0.2067057,-0.56844 -0.2067057,-1.32809 0,-1.41593 0.7751464,-2.22208 0.7803141,-0.80615 2.056722,-0.80615 0.4960937,0 0.9715167,0.13952 0.480591,0.13953 0.878499,0.34107 v 1.08003 h -0.05168 q -0.444417,-0.34623 -0.91984,-0.53226 -0.470256,-0.18604 -0.9198409,-0.18604 -0.8268229,0 -1.3074137,0.55811 -0.4754231,0.55293 -0.4754231,1.6278 0,1.04387 0.4650878,1.60714 0.4702556,0.55811 1.317749,0.55811 0.2945559,0 0.5994469,-0.0775 0.304891,-0.0775 0.54777,-0.20154 0.211873,-0.10852 0.397908,-0.22737 0.186036,-0.12403 0.294556,-0.21188 h 0.05168 z"
         style="stroke-width:0.26458332"
         id="path4345"
         inkscape:connector-curvature="0" />
      <path
         d="m 18.087487,302.48062 h -1.281575 l -2.315104,-2.52698 -0.630453,0.59945 v 1.92753 h -0.971517 v -8.04085 h 0.971517 v 5.15731 l 2.806031,-2.88872 h 1.224731 l -2.682007,2.66651 z"
         style="stroke-width:0.26458332"
         id="path4347"
         inkscape:connector-curvature="0" />
      <path
         d="m 23.23446,300.81664 q 0,0.79065 -0.656291,1.29708 -0.651123,0.50643 -1.782836,0.50643 -0.640788,0 -1.178223,-0.14986 -0.532267,-0.15503 -0.894002,-0.3359 v -1.09037 h 0.05168 q 0.45992,0.34623 1.023193,0.55293 0.563273,0.20154 1.080038,0.20154 0.640788,0 1.002523,-0.2067 0.361735,-0.20671 0.361735,-0.65113 0,-0.34106 -0.196371,-0.51676 -0.19637,-0.1757 -0.754476,-0.29972 -0.206705,-0.0465 -0.542602,-0.10852 -0.330729,-0.062 -0.604615,-0.13436 -0.759643,-0.20154 -1.080037,-0.58911 -0.315226,-0.39275 -0.315226,-0.96119 0,-0.35656 0.144694,-0.67179 0.149862,-0.31523 0.449585,-0.56327 0.289388,-0.24288 0.733805,-0.38241 0.449585,-0.14469 1.002523,-0.14469 0.516764,0 1.043864,0.12919 0.532267,0.12402 0.883667,0.30489 v 1.0387 h -0.05168 q -0.37207,-0.27389 -0.904337,-0.45992 -0.532267,-0.19121 -1.043864,-0.19121 -0.532267,0 -0.89917,0.20671 -0.366903,0.20154 -0.366903,0.60461 0,0.35657 0.222209,0.53744 0.217041,0.18087 0.702799,0.29455 0.268718,0.062 0.599447,0.12403 0.335897,0.062 0.558105,0.11368 0.676962,0.15503 1.043864,0.53227 0.366903,0.38241 0.366903,1.01286 z"
         style="stroke-width:0.26458332"
         id="path4349"
         inkscape:connector-curvature="0" />
    </g>
    <path
       style="fill:#000000;fill-opacity:1;stroke:#ff5a00;stroke-width:0.89958328;stroke-linecap:butt;stroke-linejoin:miter;stroke-miterlimit:4;stroke-dasharray:none;stroke-opacity:1"
       d="m 14.904538,299.37298 7.632488,-7.82228"
       id="path4412"
       inkscape:connector-curvature="0"
       sodipodi:nodetypes="cc"
       inkscape:export-filename="C:\Users\nicho\OneDrive\Desktop\logo.png"
       inkscape:export-xdpi="150"
       inkscape:export-ydpi="150" />
    <g
       id="g4416"
       inkscape:export-filename="C:\Users\nicho\OneDrive\Desktop\logo.png"
       inkscape:export-xdpi="150"
       inkscape:export-ydpi="150">
      <g
         inkscape:export-ydpi="150"
         inkscape:export-xdpi="150"
         inkscape:export-filename="C:\Users\nicho\OneDrive\Desktop\logo.png"
         id="g4380">
        <path
           style="fill:#000000;fill-opacity:0.98342542;stroke:none;stroke-width:0.26458332px;stroke-linecap:butt;stroke-linejoin:miter;stroke-opacity:1"
           d="m 19.079972,294.88849 -0.02687,-0.0289 0.07958,-0.062 0.02791,0.0538 z"
           id="path4560"
           inkscape:connector-curvature="0" />
        <g
           id="g4794">
          <g
             id="g4678"
             transform="translate(-0.19905851,-0.17282826)">
            <g
               id="g4558"
               transform="matrix(0.59876655,0.53111167,-0.57822212,0.54998223,173.49586,114.58173)">
              <path
                 sodipodi:nodetypes="cccccccc"
                 inkscape:connector-curvature="0"
                 d="m 30.663321,288.94436 c -1.252045,0.25988 -1.370162,2.05526 -1.370162,2.05526 l -0.05011,2.82908 0.575272,-0.62822 m 0.763216,-4.25612 c 1.252045,0.25988 1.417409,2.05526 1.417409,2.05526 l 0.0083,2.76679 -0.475046,-0.57537"
                 style="fill:#ff5a00;fill-opacity:1;stroke:#000000;stroke-width:0.26458332px;stroke-linecap:butt;stroke-linejoin:miter;stroke-opacity:1"
                 id="path4464" />
              <rect
                 y="289.19244"
                 x="30.525034"
                 height="0.46932805"
                 width="0.21633171"
                 id="rect4496"
                 style="fill:#ff5a00;fill-opacity:1;stroke:none;stroke-width:1.60221493;stroke-miterlimit:4;stroke-dasharray:none;stroke-opacity:1" />
              <rect
                 y="289.63043"
                 x="30.308365"
                 height="1.0305992"
                 width="1.0496792"
                 id="rect4498"
                 style="fill:#ff5a00;fill-opacity:1;stroke:none;stroke-width:0.41909426;stroke-miterlimit:4;stroke-dasharray:none;stroke-opacity:1" />
              <path
                 sodipodi:nodetypes="ccccccccccccccc"
                 inkscape:connector-curvature="0"
                 id="path4512"
                 d="m 30.223589,291.15348 0.122778,-0.16079 0.108161,-0.13155 0.106699,-0.12425 0.0656,-0.0717 0.04403,0.0381 0.0058,0.003 0.04385,-0.0438 0.342021,0.38587 0.321559,-0.27916 -0.337635,-0.29525 -0.530572,-0.003 -0.477953,0.12131 0.06139,0.36833 z"
                 style="fill:#ff5a00;fill-opacity:1;stroke:none;stroke-width:0.26458332px;stroke-linecap:butt;stroke-linejoin:miter;stroke-opacity:1" />
              <path
                 inkscape:connector-curvature="0"
                 id="path4514"
                 d="m 30.62552,290.66654 c 0.04961,-0.0517 0.09302,-0.004 0.09302,-0.004 l 0.0041,0.0951 h -0.08268 z"
                 style="fill:#000000;fill-opacity:1;stroke:none;stroke-width:0.26458332px;stroke-linecap:butt;stroke-linejoin:miter;stroke-opacity:1" />
              <path
                 sodipodi:nodetypes="cccc"
                 inkscape:connector-curvature="0"
                 id="path4516"
                 d="m 30.221411,291.16365 0.169499,-0.22635 -0.256316,0.0414 z"
                 style="fill:#ff5a00;fill-opacity:1;stroke:none;stroke-width:0.26458332px;stroke-linecap:butt;stroke-linejoin:miter;stroke-opacity:1" />
              <path
                 sodipodi:nodetypes="cccccc"
                 inkscape:connector-curvature="0"
                 id="path4518"
                 d="m 30.60175,289.09661 0.01963,-0.007 0.05478,0.0156 0.05168,0.12817 -0.189135,0.0289 z"
                 style="fill:#ff5a00;fill-opacity:1;stroke:none;stroke-width:0.26458332px;stroke-linecap:butt;stroke-linejoin:miter;stroke-opacity:1" />
              <path
                 sodipodi:nodetypes="cccccccccccccccccccccccc"
                 inkscape:connector-curvature="0"
                 d="m 30.623666,290.7494 c 0,0 0.782443,0.8403 0.806068,1.36003 0.02363,0.51972 -0.01182,2.88205 -0.01182,2.88205 m -0.0032,-1.95092 0.861617,1.05237 0.861616,1.05238 0.861617,1.05237 c 0.02063,0.0164 0.285525,0.28097 0.431086,0.5407 0.145561,0.25972 0.171788,0.5146 -0.284924,0.51168 h -0.715454 -0.715454 c -1.625664,-0.0431 -1.281397,1.07407 -2.035932,1.11919 m 0.04636,-7.61935 c 0,0 -0.782443,0.8403 -0.806068,1.36003 -0.02363,0.51972 0.01182,2.88205 0.01182,2.88205 m 0.0032,-1.95092 -0.861617,1.05237 -0.861616,1.05238 -0.861617,1.05237 c -0.02063,0.0164 -0.285525,0.28097 -0.431086,0.5407 -0.145561,0.25972 -0.171788,0.5146 0.284924,0.51168 h 0.715454 0.715454 c 1.648195,0.13293 1.282561,1.07299 2.047625,1.11919"
                 style="fill:#ffffff;fill-opacity:0.98342542;stroke:#000000;stroke-width:0.26458332;stroke-linecap:butt;stroke-linejoin:miter;stroke-miterlimit:4;stroke-dasharray:none;stroke-opacity:1"
                 id="path4522" />
              <path
                 inkscape:connector-curvature="0"
                 id="path4524"
                 d="m 31.068904,291.08098 -0.182933,-0.23254 0.129191,0.009 0.08682,0.20153 z"
                 style="fill:#ff5a00;fill-opacity:0.98342542;stroke:none;stroke-width:0.26458332px;stroke-linecap:butt;stroke-linejoin:miter;stroke-opacity:1" />
              <path
                 sodipodi:nodetypes="cccccsc"
                 inkscape:connector-curvature="0"
                 id="path4537"
                 d="m 28.262082,295.05894 -0.01169,-0.61389 -0.01169,-0.61389 -0.01169,-0.61388 c -0.02246,-0.52628 0.138193,-0.65911 0.526188,-0.86967 0.133009,-0.084 0.264556,-0.18818 0.359927,-0.31151 0.09537,-0.12332 0.179372,-0.33198 0.167679,-0.49276"
                 style="fill:none;stroke:#000000;stroke-width:0.26458332px;stroke-linecap:butt;stroke-linejoin:miter;stroke-opacity:1" />
              <path
                 style="fill:none;stroke:#000000;stroke-width:0.26458332px;stroke-linecap:butt;stroke-linejoin:miter;stroke-opacity:1"
                 d="m 33.017003,295.05894 0.01169,-0.61389 0.01169,-0.61389 0.01169,-0.61388 c 0.02246,-0.52628 -0.138193,-0.65911 -0.526188,-0.86967 -0.133009,-0.084 -0.264556,-0.18818 -0.359927,-0.31151 -0.09537,-0.12332 -0.179372,-0.33198 -0.167679,-0.49276"
                 id="path4539"
                 inkscape:connector-curvature="0"
                 sodipodi:nodetypes="cccccsc" />
              <path
                 inkscape:connector-curvature="0"
                 id="path4541"
                 d="m 30.355137,292.47478 0.292325,-0.73665 0.30402,0.74834"
                 style="fill:none;stroke:#000000;stroke-width:0.15875;stroke-linecap:butt;stroke-linejoin:miter;stroke-miterlimit:4;stroke-dasharray:none;stroke-opacity:1" />
            </g>
            <path
               style="fill:#ffffff;fill-opacity:0.98342542;stroke:none;stroke-width:0.26458332px;stroke-linecap:butt;stroke-linejoin:miter;stroke-opacity:1"
               d="m 19.432405,294.91225 -0.02377,-0.0238 1.67392,-2.19154 0.543727,-0.57296 0.91498,-0.54081 0.02894,0.009 0.01344,0.0228 0.02997,-0.0114 0.136426,0.0145 0.08992,0.13849 0.0155,0.0806 -0.0093,0.0228 0.05064,0.0206 0.02584,0.0196 -0.227377,0.45787 -0.552938,0.61494 -1.620572,1.29397 -0.979786,0.678 z"
               id="path4564"
               inkscape:connector-curvature="0" />
          </g>
          <path
             inkscape:connector-curvature="0"
             id="path4776"
             d="m 21.152712,295.21094 -0.549573,-0.43262 -0.409256,-0.12864 -0.409257,0.0585 -0.420949,0.0468 -0.187089,-0.15203 0.03508,-0.32739 0.04677,-0.42096 -0.315713,-0.73665 -1.157611,-0.97052 1.637026,-0.18708 1.648719,-0.21048 -0.549573,0.61973 -0.03508,0.1637 0.210475,0.17539 0.409256,-0.22217 1.040681,-1.13421 0.140316,0.0584 0.116931,0.0936 0.350791,-0.17539 -0.210475,0.35078 0.339099,0.15201 -1.473324,1.30963 -0.128623,0.1637 0.152009,0.11692 0.26894,0.10525 0.678197,-0.71329 -0.257247,3.0168 -0.05847,0.0702 z"
             style="fill:#ffffff;stroke:none;stroke-width:0.26458333;stroke-linecap:butt;stroke-linejoin:miter;stroke-opacity:1;stroke-miterlimit:4;stroke-dasharray:none;fill-opacity:1" />
        </g>
        <path
           style="fill:#ffffff;stroke:none;stroke-width:0.26458333;stroke-linecap:butt;stroke-linejoin:miter;stroke-opacity:1;stroke-miterlimit:4;stroke-dasharray:none;fill-opacity:1"
           d="m 19.880957,291.57811 0.851627,-0.8413 0.07855,-0.0765 0.05581,-0.0476 0.06408,-0.0434 0.04134,-0.0249 0.06821,-0.0228 0.07235,-0.0124 0.08268,0.003 0.136426,0.0227 0.130224,0.0351 0.126091,0.0164 0.09302,0.008 h 0.10542 l -0.961182,0.8785 -0.0031,0.003 z"
           id="path4796"
           inkscape:connector-curvature="0" />
        <path
           style="fill:#ffffff;stroke:none;stroke-width:0.26458333;stroke-linecap:butt;stroke-linejoin:miter;stroke-opacity:1;stroke-miterlimit:4;stroke-dasharray:none;fill-opacity:1"
           d="m 22.627042,293.92422 0.08062,-0.90744 0.873331,-0.83511 0.0021,0.0724 0.0031,0.0331 0.0083,0.0682 0.0093,0.0558 0.01654,0.0713 0.02584,0.0785 0.01757,0.06 0.01757,0.0651 0.01137,0.0661 0.001,0.0382 v 0.0372 l -0.01033,0.0455 -0.01757,0.0455 -0.02067,0.0424 -0.02584,0.0383 -0.03411,0.0424 -0.08785,0.0878 -0.09405,0.0837 -0.139526,0.12814 -0.118856,0.10853 -0.164331,0.14883 -0.157096,0.1447 -0.08992,0.0827 -0.08165,0.0734 z"
           id="path4355"
           inkscape:connector-curvature="0" />
        <path
           style="fill:#ffffff;stroke:none;stroke-width:0.26458332px;stroke-linecap:butt;stroke-linejoin:miter;stroke-opacity:1;fill-opacity:1"
           d="m 22.382096,294.17846 0.0062,-0.0692 -0.08372,-0.007 -0.01137,0.0941 z"
           id="path4357"
           inkscape:connector-curvature="0" />
      </g>
      <path
         sodipodi:nodetypes="ccccccccccccccc"
         inkscape:connector-curvature="0"
         id="path4388"
         d="m 22.364526,291.4024 0.02067,0.0403 0.04341,-0.0196 0.02687,-0.0103 0.378271,-0.15711 -0.09612,0.22532 -0.08992,0.20566 0.06304,0.0238 0.05684,0.0217 -0.06615,0.14677 -0.413412,-0.0393 -0.274918,-0.31523 0.137459,-0.16327 0.137459,-0.091 z"
         style="fill:#ffffff;fill-opacity:1;stroke:none;stroke-width:0.26458332px;stroke-linecap:butt;stroke-linejoin:miter;stroke-opacity:1" />
      <path
         inkscape:connector-curvature="0"
         id="path4390"
         d="m 22.33042,291.33212 0.0186,-0.27286 0.04651,-0.0424 0.03307,-0.0238 0.03824,-0.0228 0.05064,-0.0249 0.09612,-0.0413 0.10852,-0.0341 0.108521,-0.0279 0.128157,-0.03 0.114722,-0.0196 0.09922,-0.0164 0.127124,-0.0164 0.09715,-0.009 -0.0093,0.0951 -0.0124,0.10647 -0.0217,0.13849 -0.01654,0.093 -0.02377,0.10644 -0.03101,0.10544 -0.02274,0.0661 -0.02894,0.0703 -0.03721,0.0713 -0.02997,0.0465 -0.03617,0.0434 -0.04444,0.0444 -0.04547,0.0455 -0.04651,0.0434 -0.03927,0.0393 -0.182935,-0.13229 0.311092,-0.71416 z"
         style="fill:#ffffff;stroke:none;stroke-width:0.26458332px;stroke-linecap:butt;stroke-linejoin:miter;stroke-opacity:1;fill-opacity:1" />
    </g>
  </g>
</svg>
