<?xml version="1.0" encoding="UTF-8" standalone="no"?>
<!-- Created with Inkscape (http://www.inkscape.org/) -->

<svg
   xmlns:dc="http://purl.org/dc/elements/1.1/"
   xmlns:cc="http://creativecommons.org/ns#"
   xmlns:rdf="http://www.w3.org/1999/02/22-rdf-syntax-ns#"
   xmlns:svg="http://www.w3.org/2000/svg"
   xmlns="http://www.w3.org/2000/svg"
   xmlns:sodipodi="http://sodipodi.sourceforge.net/DTD/sodipodi-0.dtd"
   xmlns:inkscape="http://www.inkscape.org/namespaces/inkscape"
   width="793.70081"
   height="1122.5197"
   viewBox="0 0 210 297"
   version="1.1"
   id="svg4364"
   inkscape:version="0.92.3 (2405546, 2018-03-11)"
   sodipodi:docname="web_background.svg">
  <defs
     id="defs4358" />
  <sodipodi:namedview
     id="base"
     pagecolor="#ffffff"
     bordercolor="#666666"
     borderopacity="1.0"
     inkscape:pageopacity="0.0"
     inkscape:pageshadow="2"
     inkscape:zoom="0.35"
     inkscape:cx="668.6985"
     inkscape:cy="-406.69593"
     inkscape:document-units="px"
     inkscape:current-layer="layer1"
     showgrid="false"
     units="px"
     showborder="false"
     inkscape:window-width="1536"
     inkscape:window-height="801"
     inkscape:window-x="-8"
     inkscape:window-y="-8"
     inkscape:window-maximized="1" />
  <metadata
     id="metadata4361">
    <rdf:RDF>
      <cc:Work
         rdf:about="">
        <dc:format>image/svg+xml</dc:format>
        <dc:type
           rdf:resource="http://purl.org/dc/dcmitype/StillImage" />
        <dc:title></dc:title>
      </cc:Work>
    </rdf:RDF>
  </metadata>
  <g
     inkscape:label="Layer 1"
     inkscape:groupmode="layer"
     id="layer1">
    <rect
       style="fill:#ffffff;fill-opacity:1;stroke:none;stroke-width:0.20117469;stroke-miterlimit:4;stroke-dasharray:none;stroke-opacity:1"
       id="rect4913"
       width="293.6875"
       height="285.75"
       x="40.632439"
       y="251.64282" />
    <rect
       style="fill:#e1e1e1;fill-opacity:1;stroke:none;stroke-width:0.26458332;stroke-miterlimit:4;stroke-dasharray:none;stroke-opacity:1"
       id="rect4920"
       width="107.15625"
       height="285.75"
       x="-66.523811"
       y="251.64282" />
    <path
       inkscape:connector-curvature="0"
       style="fill:#ececec;fill-opacity:1;stroke:none;stroke-width:0.39687499;stroke-miterlimit:4;stroke-dasharray:none;stroke-opacity:1"
       d="m -30.356517,282.18774 a 32.883924,32.883924 0 0 0 -32.8843,32.88379 32.883924,32.883924 0 0 0 32.8843,32.88377 32.883924,32.883924 0 0 0 32.8837797,-32.88377 32.883924,32.883924 0 0 0 -32.8837797,-32.88379 z m 0,10.58333 a 22.300594,22.300594 0 0 1 22.3004397,22.30046 22.300594,22.300594 0 0 1 -22.3004397,22.30044 22.300594,22.300594 0 0 1 -22.30097,-22.30044 22.300594,22.300594 0 0 1 22.30097,-22.30046 z"
       id="path4938" />
    <path
       inkscape:connector-curvature="0"
       style="fill:#ececec;fill-opacity:1;stroke:none;stroke-width:0.39687499;stroke-miterlimit:4;stroke-dasharray:none;stroke-opacity:1"
       d="m -32.855005,391.68035 a 32.883924,32.883924 0 0 0 -32.884301,32.88379 32.883924,32.883924 0 0 0 32.884301,32.88377 A 32.883924,32.883924 0 0 0 0.02877434,424.56414 32.883924,32.883924 0 0 0 -32.855005,391.68035 Z m 0,10.58333 a 22.300594,22.300594 0 0 1 22.300439,22.30046 22.300594,22.300594 0 0 1 -22.300439,22.30044 22.300594,22.300594 0 0 1 -22.300971,-22.30044 22.300594,22.300594 0 0 1 22.300971,-22.30046 z"
       id="path4940" />
    <path
       inkscape:connector-curvature="0"
       style="fill:#ececec;fill-opacity:1;stroke:none;stroke-width:0.13559687;stroke-miterlimit:4;stroke-dasharray:none;stroke-opacity:1"
       d="m 26.056408,387.62782 a 11.235168,11.235168 0 0 0 -11.235296,11.23512 11.235168,11.235168 0 0 0 11.235296,11.23512 11.235168,11.235168 0 0 0 11.235119,-11.23512 11.235168,11.235168 0 0 0 -11.235119,-11.23512 z m 0,3.61592 a 7.6192528,7.6192528 0 0 1 7.6192,7.6192 7.6192528,7.6192528 0 0 1 -7.6192,7.6192 7.6192528,7.6192528 0 0 1 -7.61938,-7.6192 7.6192528,7.6192528 0 0 1 7.61938,-7.6192 z"
       id="path4942" />
    <path
       inkscape:connector-curvature="0"
       style="fill:#ececec;fill-opacity:1;stroke:none;stroke-width:0.28720272;stroke-miterlimit:4;stroke-dasharray:none;stroke-opacity:1"
       d="m 9.218527,472.61986 a 23.796792,23.796792 0 0 0 -23.797064,23.7967 23.796792,23.796792 0 0 0 23.797064,23.79668 23.796792,23.796792 0 0 0 23.796688,-23.79668 23.796792,23.796792 0 0 0 -23.796688,-23.7967 z m 0,7.65874 A 16.138056,16.138056 0 0 1 25.356471,496.41656 16.138056,16.138056 0 0 1 9.218527,512.5545 16.138056,16.138056 0 0 1 -6.9197999,496.41656 16.138056,16.138056 0 0 1 9.218527,480.2786 Z"
       id="path4944" />
    <path
       style="fill:#f2f2f2;fill-opacity:1;stroke:none;stroke-width:0.17752966;stroke-miterlimit:4;stroke-dasharray:none;stroke-opacity:1"
       d="m -23.111376,476.37797 a 14.7096,14.7096 0 0 1 -14.709602,14.7096 14.7096,14.7096 0 0 1 -14.709602,-14.7096 14.7096,14.7096 0 0 1 14.709602,-14.7096 14.7096,14.7096 0 0 1 14.709602,14.7096 z"
       id="path4946"
       inkscape:connector-curvature="0" />
    <path
       style="fill:#f2f2f2;fill-opacity:1;stroke:none;stroke-width:0.12914467;stroke-miterlimit:4;stroke-dasharray:none;stroke-opacity:1"
       d="m -29.525845,522.61561 a 10.700557,10.700557 0 0 1 -10.700558,10.70056 10.700557,10.700557 0 0 1 -10.700559,-10.70056 10.700557,10.700557 0 0 1 10.700559,-10.70055 10.700557,10.700557 0 0 1 10.700558,10.70055 z"
       id="path4948"
       inkscape:connector-curvature="0" />
    <path
       style="fill:#f2f2f2;fill-opacity:1;stroke:none;stroke-width:0.1226933;stroke-miterlimit:4;stroke-dasharray:none;stroke-opacity:1"
       d="m -41.40763,266.75803 a 10.166015,10.166015 0 0 1 -10.166017,10.16601 10.166015,10.166015 0 0 1 -10.166017,-10.16601 10.166015,10.166015 0 0 1 10.166017,-10.16602 10.166015,10.166015 0 0 1 10.166017,10.16602 z"
       id="path4950"
       inkscape:connector-curvature="0" />
    <path
       style="fill:#f2f2f2;fill-opacity:1;stroke:none;stroke-width:0.21301198;stroke-miterlimit:4;stroke-dasharray:none;stroke-opacity:1"
       d="M 10.030045,369.2029 A 17.649562,17.649562 0 0 1 -7.6195188,386.85246 17.649562,17.649562 0 0 1 -25.269084,369.2029 17.649562,17.649562 0 0 1 -7.6195188,351.55334 17.649562,17.649562 0 0 1 10.030045,369.2029 Z"
       id="path4952"
       inkscape:connector-curvature="0" />
    <path
       style="fill:#f2f2f2;fill-opacity:1;stroke:none;stroke-width:0.24526866;stroke-miterlimit:4;stroke-dasharray:none;stroke-opacity:1"
       d="M 36.222459,275.65857 A 20.32226,20.32226 0 0 1 15.900198,295.98083 20.32226,20.32226 0 0 1 -4.4220649,275.65857 20.32226,20.32226 0 0 1 15.900198,255.33631 20.32226,20.32226 0 0 1 36.222459,275.65857 Z"
       id="path4954"
       inkscape:connector-curvature="0" />
    <rect
       y="251.64282"
       x="334.31995"
       height="285.75"
       width="107.15625"
       id="rect4956"
       style="fill:#e1e1e1;fill-opacity:1;stroke:none;stroke-width:0.26458332;stroke-miterlimit:4;stroke-dasharray:none;stroke-opacity:1" />
    <path
       style="fill:#f2f2f2;fill-opacity:1;stroke:none;stroke-width:0.12269332;stroke-miterlimit:4;stroke-dasharray:none;stroke-opacity:1"
       d="m 436.67759,271.33505 a 10.166017,10.166017 0 0 1 -10.16602,10.16601 10.166017,10.166017 0 0 1 -10.16601,-10.16601 10.166017,10.166017 0 0 1 10.16601,-10.16602 10.166017,10.166017 0 0 1 10.16602,10.16602 z"
       id="path4958"
       inkscape:connector-curvature="0" />
    <path
       style="fill:#f2f2f2;fill-opacity:1;stroke:none;stroke-width:0.27429965;stroke-miterlimit:4;stroke-dasharray:none;stroke-opacity:1"
       d="m 384.82731,285.50034 a 22.727684,22.727684 0 0 1 -22.72768,22.72768 22.727684,22.727684 0 0 1 -22.72769,-22.72768 22.727684,22.727684 0 0 1 22.72769,-22.72769 22.727684,22.727684 0 0 1 22.72768,22.72769 z"
       id="path4960"
       inkscape:connector-curvature="0" />
    <path
       style="fill:#f2f2f2;fill-opacity:1;stroke:none;stroke-width:0.22591467;stroke-miterlimit:4;stroke-dasharray:none;stroke-opacity:1"
       d="m 381.62007,515.6194 a 18.718643,18.718643 0 0 1 -18.71864,18.71864 18.718643,18.718643 0 0 1 -18.71865,-18.71864 18.718643,18.718643 0 0 1 18.71865,-18.71864 18.718643,18.718643 0 0 1 18.71864,18.71864 z"
       id="path4962"
       inkscape:connector-curvature="0" />
    <path
       inkscape:connector-curvature="0"
       style="fill:#ececec;fill-opacity:1;stroke:none;stroke-width:0.33558753;stroke-miterlimit:4;stroke-dasharray:none;stroke-opacity:1"
       d="m 401.38834,443.17293 a 27.805821,27.805821 0 0 0 -27.80614,27.80571 27.805821,27.805821 0 0 0 27.80614,27.80569 27.805821,27.805821 0 0 0 27.8057,-27.80569 27.805821,27.805821 0 0 0 -27.8057,-27.80571 z m 0,8.949 a 18.856823,18.856823 0 0 1 18.85669,18.85671 18.856823,18.856823 0 0 1 -18.85669,18.85669 18.856823,18.856823 0 0 1 -18.85714,-18.85669 18.856823,18.856823 0 0 1 18.85714,-18.85671 z"
       id="path4964" />
    <path
       inkscape:connector-curvature="0"
       style="fill:#ececec;fill-opacity:1;stroke:none;stroke-width:0.29687968;stroke-miterlimit:4;stroke-dasharray:none;stroke-opacity:1"
       d="m 413.14818,289.22563 a 24.598598,24.598598 0 0 0 -24.59888,24.5985 24.598598,24.598598 0 0 0 24.59888,24.59848 24.598598,24.598598 0 0 0 24.59849,-24.59848 24.598598,24.598598 0 0 0 -24.59849,-24.5985 z m 0,7.91679 a 16.681809,16.681809 0 0 1 16.68169,16.68171 16.681809,16.681809 0 0 1 -16.68169,16.68169 16.681809,16.681809 0 0 1 -16.68209,-16.68169 16.681809,16.681809 0 0 1 16.68209,-16.68171 z"
       id="path4966" />
    <path
       style="fill:#f2f2f2;fill-opacity:1;stroke:none;stroke-width:0.39687499;stroke-miterlimit:4;stroke-dasharray:none;stroke-opacity:1"
       d="m 438.81575,392.40815 a 32.883926,32.883926 0 0 1 -32.88393,32.88392 32.883926,32.883926 0 0 1 -32.88393,-32.88392 32.883926,32.883926 0 0 1 32.88393,-32.88393 32.883926,32.883926 0 0 1 32.88393,32.88393 z"
       id="path4968"
       inkscape:connector-curvature="0" />
    <path
       inkscape:connector-curvature="0"
       style="fill:#ececec;fill-opacity:1;stroke:none;stroke-width:0.25171933;stroke-miterlimit:4;stroke-dasharray:none;stroke-opacity:1"
       d="m 359.06789,323.97079 a 20.856743,20.856743 0 0 0 -20.85698,20.85666 20.856743,20.856743 0 0 0 20.85698,20.85664 20.856743,20.856743 0 0 0 20.85665,-20.85664 20.856743,20.856743 0 0 0 -20.85665,-20.85666 z m 0,6.71251 a 14.144229,14.144229 0 0 1 14.14413,14.14415 14.144229,14.144229 0 0 1 -14.14413,14.14413 14.144229,14.144229 0 0 1 -14.14447,-14.14413 14.144229,14.144229 0 0 1 14.14447,-14.14415 z"
       id="path4970" />
    <path
       inkscape:connector-curvature="0"
       style="fill:#ececec;fill-opacity:1;stroke:none;stroke-width:0.12591991;stroke-miterlimit:4;stroke-dasharray:none;stroke-opacity:1"
       d="m 353.54695,384.37336 a 10.433363,10.433363 0 0 0 -10.43348,10.43332 10.433363,10.433363 0 0 0 10.43348,10.43331 10.433363,10.433363 0 0 0 10.43332,-10.43331 10.433363,10.433363 0 0 0 -10.43332,-10.43332 z m 0,3.35786 a 7.0754995,7.0754995 0 0 1 7.07545,7.07546 7.0754995,7.0754995 0 0 1 -7.07545,7.07545 7.0754995,7.0754995 0 0 1 -7.07562,-7.07545 7.0754995,7.0754995 0 0 1 7.07562,-7.07546 z"
       id="path4974" />
    <path
       style="fill:#f2f2f2;fill-opacity:1;stroke:none;stroke-width:0.20656064;stroke-miterlimit:4;stroke-dasharray:none;stroke-opacity:1"
       d="m 373.06744,441.31847 a 17.115023,17.115023 0 0 1 -17.11502,17.11502 17.115023,17.115023 0 0 1 -17.11503,-17.11502 17.115023,17.115023 0 0 1 17.11503,-17.11503 17.115023,17.115023 0 0 1 17.11502,17.11503 z"
       id="path4976"
       inkscape:connector-curvature="0" />
  </g>
</svg>
